<svg width="26" height="26" viewBox="0 0 26 26" fill="none" xmlns="http://www.w3.org/2000/svg">
<path d="M19.5219 12.7834V9.65259C19.5219 6.07759 16.5969 3.15259 13.0219 3.15259C9.43605 3.15259 6.52188 6.06675 6.52188 9.65259V12.7834C6.52188 13.4443 6.24022 14.4518 5.90438 15.0151L4.65855 17.0843C3.88938 18.3626 4.42022 19.7818 5.82855 20.2584C10.4977 21.8184 15.5352 21.8184 20.2044 20.2584C21.5152 19.8251 22.0894 18.2759 21.3744 17.0843" stroke="#292D32" stroke-width="2" stroke-miterlimit="10" stroke-linecap="round"/>
<path d="M15.0257 3.46656C14.6898 3.36906 14.3432 3.29323 13.9857 3.2499C12.9457 3.1199 11.949 3.19573 11.0173 3.46656C11.3315 2.6649 12.1115 2.10156 13.0215 2.10156C13.9315 2.10156 14.7115 2.6649 15.0257 3.46656Z" stroke="#292D32" stroke-width="2" stroke-miterlimit="10" stroke-linecap="round" stroke-linejoin="round"/>
<path d="M16.2717 20.6484C16.2717 22.4359 14.8092 23.8984 13.0217 23.8984C12.1334 23.8984 11.3101 23.5301 10.7251 22.9451C10.1401 22.3601 9.77173 21.5368 9.77173 20.6484" stroke="#292D32" stroke-width="2" stroke-miterlimit="10"/>
</svg>
