<svg width="21" height="20" viewBox="0 0 21 20" fill="none" xmlns="http://www.w3.org/2000/svg">
<path d="M1.5 9L19.5 9M7.5 14H13.5M6.5 1L6.5 5M14.5 1L14.5 5M5.5 19H15.5C17.3856 19 18.3284 19 18.9142 18.4142C19.5 17.8284 19.5 16.8856 19.5 15V8C19.5 6.11438 19.5 5.17157 18.9142 4.58579C18.3284 4 17.3856 4 15.5 4H5.5C3.61438 4 2.67157 4 2.08579 4.58579C1.5 5.17157 1.5 6.11438 1.5 8V15C1.5 16.8856 1.5 17.8284 2.08579 18.4142C2.67157 19 3.61438 19 5.5 19Z" stroke="#7F7F7F" stroke-width="1.5" stroke-linecap="round"/>
</svg>
