<svg width="26" height="26" viewBox="0 0 26 26" fill="none" xmlns="http://www.w3.org/2000/svg">
<path d="M16.185 8.70986C16.4234 9.18652 16.5642 9.72819 16.5642 10.3024C16.5534 12.2199 15.0475 13.7907 13.1409 13.8449C13.065 13.834 12.9675 13.834 12.8809 13.8449C10.9742 13.7799 9.45752 12.2199 9.45752 10.3024C9.45752 8.34152 11.0392 6.74902 13.0109 6.74902" stroke="#292D32" stroke-width="2" stroke-linecap="round" stroke-linejoin="round"/>
<path d="M20.3013 20.9949C18.373 22.7608 15.8163 23.8333 12.9997 23.8333C10.183 23.8333 7.62633 22.7608 5.698 20.9949C5.80633 19.9766 6.45633 18.9799 7.6155 18.1999C10.5838 16.2283 15.4372 16.2283 18.3838 18.1999C19.543 18.9799 20.193 19.9766 20.3013 20.9949Z" stroke="#292D32" stroke-width="2" stroke-linecap="round" stroke-linejoin="round"/>
<path d="M4.33341 6.50008C2.97925 8.30925 2.16675 10.5626 2.16675 13.0001C2.16675 18.9801 7.02008 23.8334 13.0001 23.8334C18.9801 23.8334 23.8334 18.9801 23.8334 13.0001C23.8334 7.02008 18.9801 2.16675 13.0001 2.16675C11.4509 2.16675 9.96675 2.49175 8.63425 3.08758" stroke="#292D32" stroke-width="2" stroke-linecap="round" stroke-linejoin="round"/>
</svg>
